# xmcd CD database file
#
# Track frame offsets:
#	150
#	20461
#	39440
#	55844
#	70038
#	86250
#	105651
#	125899
#	144293
#	161349
#	178023
#	195335
#	212459
#	229381
#	249829
#	267433
#	286396
#	303892
#
# Disc length: 4315 seconds
#
# Revision: 2
# Processed by: cddbd v1.5.2PL0 Copyright (c) Steve Scherf et al.
# Submitted via: CDex 1.51
#
DISCID=ee10d912
DTITLE=Various Artist - SF-339
DYEAR=1900
DGENRE=Blues
TTITLE0=Kiesza - Hideaway
TTITLE1=Ed Sheeran - Sing
TTITLE2=Lorde - Tennis Court
TTITLE3=Sam Smith - Stay With Me
TTITLE4=Iggy Azalea Ft Charli XCX - Fancy
TTITLE5=One Direction - You and I
TTITLE6=Lana Del Rey - West Coast
TTITLE7=Shift K3y - Touch
TTITLE8=Elyar Fox - A Billion Girls
TTITLE9=Rita Ora Ft Calvin Harris - I Will Never Let You Down
TTITLE10=Lady Gaga - G.U.Y
TTITLE11=John Martin - Anywhere For You
TTITLE12=Foxes - Holding Onto Heaven
TTITLE13=Lily Allen - Our Time
TTITLE14=Calvin Harris - Summer
TTITLE15=Little Mix - Salute
TTITLE16=katy Perry - Birthday
TTITLE17=Black Keys The - Fever
EXTD=
EXTT0=
EXTT1=
EXTT2=
EXTT3=
EXTT4=
EXTT5=
EXTT6=
EXTT7=
EXTT8=
EXTT9=
EXTT10=
EXTT11=
EXTT12=
EXTT13=
EXTT14=
EXTT15=
EXTT16=
EXTT17=
PLAYORDER=
